<svg version="1" xmlns="http://www.w3.org/2000/svg" width="666.667" height="666.667" viewBox="0 0 500.000000 500.000000"><path d="M302.5 5.7c-35 7.4-61.4 37.8-73.6 84.8-1.2 4.4-2.3 8.9-2.5 10-.2 1.1-.6 3.1-.9 4.5-.9 4.6-2.4 15.3-3.1 21.5-1.6 15.5-1.9 23.6-1.9 47 .1 23.6.7 40.9 2 51 .2 1.6.6 6.2 1 10.1.3 3.9.7 8 .9 9 .2 1.1.7 5.1 1.1 9.1l.7 7.1-111.7 111.7L2.8 483.2l5.8 5.9c3.2 3.3 6.2 5.9 6.7 5.9.4 0 50.5-49.8 111.4-110.6l110.6-110.5 6.6.6c3.6.4 7.6.8 8.8 1 1.2.2 5.7.6 10 1s9.2.8 10.8 1c16.6 2 80.5 2.7 98 1.2 53.8-4.7 88.9-18.8 107.3-43 16-21 19.8-47.9 10.8-74.8-8.1-24.1-26.6-44-48.8-52.3-3.7-1.4-7.7-2.8-9-3-1.3-.3-4.5-.9-7.3-1.5-2.7-.5-10-.9-16.1-.8l-11.1.2.2-10.5c.5-21.3-3.6-37-13.9-52.9C373.2 24 357.9 12.7 339 7c-9.6-2.9-26.4-3.5-36.5-1.3z"/></svg>